# xmcd
#
# Track frame offsets: 
#        150
#        12356
#        29312
#        46707
#        60943
#        76520
#        89652
#        107960
#        123470
#        138448
#        156491
#
# Disc length: 2575 seconds
#
# Revision: 0
# Processed by: cddbd v1.5.2PL0 Copyright (c) Steve Scherf et al.
# Submitted via: ExactAudioCopy v1.0b2
#
DISCID=850a0d0b
DTITLE=Machineri - Machineri
DYEAR=2011
DGENRE=Blues
TTITLE0=Soul People
TTITLE1=Stranger On The Water
TTITLE2=The Searchers
TTITLE3=Spider Suitcase
TTITLE4=Machine I Am
TTITLE5=Drop Us A Line Ladder Operator
TTITLE6=Blood On Our Hands
TTITLE7=Big Bad Machine
TTITLE8=Lover's Whim
TTITLE9=Cold Sister
TTITLE10=Father Gun
EXTD=
EXTT0=
EXTT1=
EXTT2=
EXTT3=
EXTT4=
EXTT5=
EXTT6=
EXTT7=
EXTT8=
EXTT9=
EXTT10=
PLAYORDER=
